<?xml version="1.0" encoding="utf-8"?>
<!-- Generator: Adobe Illustrator 18.1.0, SVG Export Plug-In . SVG Version: 6.00 Build 0)  -->
<svg version="1.1" id="Calque_1" xmlns="http://www.w3.org/2000/svg" xmlns:xlink="http://www.w3.org/1999/xlink" x="0px" y="0px"
	 viewBox="-71.3 90.2 94 59.5" enable-background="new -71.3 90.2 94 59.5" xml:space="preserve">
<path fill="#3E82C4" d="M8.2,149.7c8,0,14.5-6.5,14.5-14.5c0-5.1-2.7-9.8-7.1-12.4c0-0.5,0.1-1.1,0.1-1.6c0-11-9-20-20-20
	c-2,0-3.9,0.3-5.7,0.8c-3.2-7.2-10.3-11.8-18.3-11.8c-11,0-20,9-20,20c0,0.3,0,0.6,0,0.8c-1.2-0.2-2.3-0.3-3.5-0.3
	c-10.8,0-19.5,8.7-19.5,19.5c0,10.8,8.7,19.5,19.5,19.5C-51.4,149.7,7.7,149.7,8.2,149.7z M-67.3,130.2c0-8.5,7-15.5,15.5-15.5
	c1.7,0,3.5,0.3,5.2,0.9c0.5,0.2,1,0.4,1.5,0.7c3,1.7,5.1,4.6,5.8,8c0.1,0.5,0.5,0.8,1,0.8c0.1,0,0.1,0,0.2,0
	c0.5-0.1,0.9-0.7,0.8-1.2c-0.6-2.8-2.1-5.4-4.2-7.3c-0.3-0.3-0.9-0.7-1.5-1.8c-0.4-0.7-0.8-1.4-1-2.1c-0.1-0.8-0.2-1.6-0.2-2.4
	c0-8.8,7.2-16,16-16c6.9,0,13,4.4,15.2,11c0.2,0.5,0.6,1,1.1,1.2c0.5,0.2,1.1,0.2,1.6,0c2-0.8,4-1.2,6.1-1.2c8.8,0,16,7.2,16,16
	c0,0.6-0.1,1.3-0.2,2.1c-2.4-0.6-5-0.5-7.5,0.3c-1.9,0.6-3.6,1.5-5,2.8c-0.4,0.4-0.5,1-0.1,1.4c0.2,0.2,0.5,0.3,0.8,0.3
	c0.2,0,0.5-0.1,0.6-0.2c1.3-1.1,2.7-1.9,4.3-2.4c2.6-0.8,5.4-0.7,7.9,0.2c0,0,0,0,0,0c3.7,1.7,6.1,5.5,6.1,9.5
	c0,5.8-4.7,10.5-10.5,10.5c-0.4,0-59.7,0-60,0C-60.4,145.7-67.3,138.7-67.3,130.2z"/>
</svg>
