<?xml version="1.0" encoding="utf-8"?>
<!-- Generator: Adobe Illustrator 18.1.0, SVG Export Plug-In . SVG Version: 6.00 Build 0)  -->
<svg version="1.1" id="Layer_1" xmlns="http://www.w3.org/2000/svg" xmlns:xlink="http://www.w3.org/1999/xlink" x="0px" y="0px"
	 viewBox="0.1 119.7 249.9 76.5" enable-background="new 0.1 119.7 249.9 76.5" xml:space="preserve">
<g id="Your_Icon">
	<path fill="#3E82C4" d="M95.2,181.2H46.8c-15.6,0-28.4-10.4-28.4-23.2c0-12.8,12.7-23.2,28.4-23.2h64c15.6,0,28.4,10.4,28.4,23.2
		c0,6.6-3.4,12.6-8.8,16.8c3.4,1.9,7.5,3,11.9,3h8.5c4.3-5.8,6.8-12.5,6.8-19.8c0-21.1-21-38.3-46.8-38.3h-64
		C21,119.7,0.1,136.9,0.1,158s21,38.3,46.8,38.3h64c0.3,0,0.6,0,0.9,0C104.9,192.3,99.3,187.2,95.2,181.2z"/>
	<path fill="#3E82C4" d="M154.8,134.8h48.4c15.6,0,28.4,10.4,28.4,23.2c0,12.8-12.7,23.2-28.4,23.2h-64c-15.6,0-28.4-10.4-28.4-23.2
		c0-6.6,3.4-12.6,8.8-16.8c-3.4-1.9-7.5-3-11.9-3h-8.5c-4.3,5.8-6.8,12.5-6.8,19.8c0,21.1,21,38.3,46.8,38.3h64
		c25.8,0,46.8-17.2,46.8-38.3c0-21.1-21-38.3-46.8-38.3h-64c-0.3,0-0.6,0-0.9,0C145.1,123.7,150.8,128.8,154.8,134.8z"/>
</g>
</svg>
