<?xml version="1.0" encoding="utf-8"?>
<!-- Generator: Adobe Illustrator 18.1.0, SVG Export Plug-In . SVG Version: 6.00 Build 0)  -->
<svg version="1.1" id="Your_Icon" xmlns="http://www.w3.org/2000/svg" xmlns:xlink="http://www.w3.org/1999/xlink" x="0px" y="0px"
	 viewBox="-74 76 100 100" enable-background="new -74 76 100 100" xml:space="preserve">
<circle fill="#3E82C4" cx="-24.1" cy="133.9" r="10.1"/>
<path fill="#3E82C4" d="M-24,155c-19.9,0-35.5-16.8-36.2-17.5l-2-2.1l1.8-2.3c0.2-0.2,4.1-5.1,10.4-10.1
	c8.6-6.7,17.5-10.3,25.9-10.3s17.3,3.5,25.9,10.3c6.3,5,10.3,9.9,10.4,10.1l1.8,2.3l-1.9,2.1C11.5,138.2-4.1,155-24,155z M-53.1,135
	c4.6,4.2,16,13.2,29.1,13.2c13.1,0,24.5-9,29.1-13.2c-4.5-4.8-16-15.5-29.1-15.5C-37,119.5-48.6,130.2-53.1,135z"/>
<path fill="#3E82C4" d="M-29.7,106.9l5.7-9.9l5.7,9.9c3,0.4,6,1.2,9.1,2.3L-24,83.6l-14.8,25.6C-35.7,108.1-32.7,107.4-29.7,106.9z"
	/>
<path fill="#3E82C4" d="M7.3,150.9l6.1,10.1h-74.6l6.1-10.1c-2-1.3-3.9-2.6-5.6-3.9L-73,168h98l-12.2-21
	C11.1,148.2,9.3,149.6,7.3,150.9z"/>
</svg>
