<?xml version="1.0" encoding="utf-8"?>
<!-- Generator: Adobe Illustrator 18.1.0, SVG Export Plug-In . SVG Version: 6.00 Build 0)  -->
<svg version="1.1" id="Your_Icon" xmlns="http://www.w3.org/2000/svg" xmlns:xlink="http://www.w3.org/1999/xlink" x="0px" y="0px"
	 viewBox="0 0 250 250" enable-background="new 0 0 250 250" xml:space="preserve">
<circle fill="none" stroke="#3E82C4" stroke-width="7" stroke-miterlimit="10" cx="124.8" cy="145.2" r="25.3"/>
<path fill="none" stroke="#3E82C4" stroke-width="7" stroke-miterlimit="10" d="M125,198c-49.8,0-88.8-42-90.5-43.8l-5-5.3l4.5-5.8
	c0.5-0.5,10.2-12.7,26-25.2c21.5-16.8,43.8-25.8,64.8-25.8S168,101,189.5,118c15.8,12.5,25.8,24.8,26,25.2l4.5,5.8l-4.8,5.3
	C213.8,156,174.8,198,125,198z M52.3,148c11.5,10.5,40,33,72.8,33s61.2-22.5,72.7-33c-11.2-12-40-38.8-72.7-38.8
	C92.5,109.2,63.5,136,52.3,148z"/>
<path fill="none" stroke="#3E82C4" stroke-width="4" stroke-miterlimit="10" d="M110.8,77.8L125,53l14.2,24.8c7.5,1,15,3,22.8,5.8
	l-37-64l-37,64C95.8,80.8,103.2,79,110.8,77.8z"/>
<path fill="none" stroke="#3E82C4" stroke-width="4" stroke-miterlimit="10" d="M203.2,187.7l15.2,25.3H32l15.2-25.3
	c-5-3.3-9.8-6.5-14-9.7L2.5,230.5h245L217,178C212.8,181,208.2,184.5,203.2,187.7z"/>
</svg>
