<?xml version="1.0" encoding="utf-8"?>
<!-- Generator: Adobe Illustrator 18.1.0, SVG Export Plug-In . SVG Version: 6.00 Build 0)  -->
<svg version="1.1" id="Layer_1" xmlns="http://www.w3.org/2000/svg" xmlns:xlink="http://www.w3.org/1999/xlink" x="0px" y="0px"
	 viewBox="0 0 90 33.3" enable-background="new 0 0 90 33.3" xml:space="preserve">
<path fill="#3E82C4" d="M90,29.7c0,0,0,0.5,0,0.5l-0.9-16.5l0,0L89,12.6c0-1.3-0.8-2.4-2.1-2.5c-1.3-0.1-2.4,0.8-2.5,2.1l0,0.4
	l-1,8.2c0,0,0,0,0,0c-1.8-1.8-4-3.8-6.6-6c-3.7-3-8.3-6.3-13.7-9c-5.4-2.7-11.6-4.9-18-5.4c-0.8-0.1-1.6-0.1-2.5-0.2
	c-0.8,0-1.6,0-2.3,0l-0.6,0l-0.6,0l-1.2,0.1c-0.8,0.1-1.6,0.1-2.3,0.2c-0.8,0-1.5,0.2-2.3,0.3c-0.8,0.1-1.5,0.2-2.3,0.3
	c-0.8,0.1-1.5,0.3-2.2,0.4c-0.7,0.2-1.5,0.3-2.2,0.5C20.8,3.3,15.7,5.6,11.7,8c-4,2.4-7,5-8.9,6.9C0.9,16.8,0,18.1,0,18.1
	s1-1.2,3-2.9c2-1.7,5.2-4,9.2-6.1c4.1-2.1,9.1-3.9,14.7-4.8c0.7-0.1,1.4-0.2,2.1-0.3c0.7-0.1,1.4-0.2,2.2-0.3
	c0.7-0.1,1.5-0.1,2.2-0.2c0.7-0.1,6.6,0.1,6.6,0.1c0.8,0.1,1.6,0.1,2.3,0.2c0.7,0.1,1.4,0.1,2.1,0.2c5.8,1,11.3,3.3,16.1,6.2
	c4.7,2.9,8.8,6.2,12,9.3c2.1,2,3.9,4,5.4,5.6l-8-0.9l-0.4,0c-1.3-0.1-2.4,0.7-2.6,2s0.7,2.5,2,2.5h0v0.1l15.8,4.2
	c1.3,0.7,3.1,0.5,4.2-0.7c0.6-0.6,0.9-1.5,1-2.3C90,29.9,90,29.8,90,29.7z"/>
</svg>
