<?xml version="1.0" encoding="utf-8"?>
<!-- Generator: Adobe Illustrator 18.1.0, SVG Export Plug-In . SVG Version: 6.00 Build 0)  -->
<svg version="1.1" id="Layer_1" xmlns="http://www.w3.org/2000/svg" xmlns:xlink="http://www.w3.org/1999/xlink" x="0px" y="0px"
	 viewBox="0 33.1 100.1 34" enable-background="new 0 33.1 100.1 34" xml:space="preserve">
<g id="Your_Icon_1_">
	<g>
		<path fill="#3E82C4" d="M13.6,41.1h35.3c-1.4-4.6-6.8-8-13-8H13.6C6.1,33.1,0,37.8,0,43.8v12.4c0,5.9,6.1,10.8,13.6,10.8h22.3
			c6.3,0,11.6-3.4,13.1-8H13.6c-1.9,0-3.3-1.2-3.3-2.7V43.8C10.1,42.3,11.7,41.1,13.6,41.1z"/>
		<path fill="#3E82C4" d="M86.4,33.1H64.2c-6.3,0-11.7,3.4-13.1,8h35.4c1.9,0,3.4,1.2,3.4,2.7v12.4c0,1.4-1.6,2.7-3.4,2.7h-8.2H51.1
			c1.6,4.7,6.8,8,13.1,8h22.3c7.4,0,13.6-4.8,13.6-10.8V43.8C100,37.8,94,33.1,86.4,33.1z"/>
	</g>
	<path fill="#3E82C4" d="M76.8,49.9c0,2.4-2.4,4.3-5.4,4.3H28.7c-3,0-5.4-1.9-5.4-4.3l0,0c0-2.4,2.4-4.3,5.4-4.3h42.7
		C74.3,45.7,76.8,47.6,76.8,49.9L76.8,49.9z"/>
</g>
</svg>